<?xml version="1.0" encoding="utf-8"?>
<!-- Generator: Adobe Illustrator 23.0.1, SVG Export Plug-In . SVG Version: 6.00 Build 0)  -->
<svg version="1.1" id="Capa_1" xmlns="http://www.w3.org/2000/svg" xmlns:xlink="http://www.w3.org/1999/xlink" x="0px" y="0px"
	 viewBox="0 0 612 792" style="enable-background:new 0 0 612 792;" xml:space="preserve">
<style type="text/css">
	.st0{fill:none;stroke:#000000;stroke-miterlimit:10;}
	.st1{fill:none;stroke:#000000;stroke-width:1.14;stroke-miterlimit:10;}
	.st2{fill:none;stroke:#000000;stroke-width:1.1485;stroke-miterlimit:10;}
	.st3{stroke:#000000;stroke-miterlimit:10;}
	.st4{fill:none;stroke:#FFFFFF;stroke-miterlimit:10;}
</style>
<g>
	<path class="st0" d="M64.14,56.89c0.43-0.34,1.49-1.1,2.89-1.05c0,0,1.26,0.05,2.46,0.96c2.73,2.08,1.33,10.94,1.89,17.43
		c0.76,8.82,5.51,17.61,8.28,17.35c2.82-0.26,5.8-10,4.76-19.17c-1.25-10.99-7.8-17.06-4.51-22.59c0.33-0.56,1.73-2.91,4.37-3.46
		c2.86-0.59,5.26,1.32,5.74,1.72c1-0.76,3.63-2.52,7.04-2.28c4.69,0.33,8.94,4.29,10.3,9.91c8.76-5.59,33.49-19.7,67.04-17.48
		c22.78,1.51,39.76,9.89,48.72,15.2c3.14-7.68,8.83-11.58,12.7-10.48c0.69,0.2,2.42,0.86,3.93,3.69c0.61-0.23,4.83-1.78,7.41,0.38
		c0.95,0.8,1.38,1.85,1.64,2.77c1.45,5.27-2.11,9.3-3.83,16.87c-0.37,1.65-1.33,6.42-0.52,12.26c0.16,1.14,1.6,11.5,5.74,12.07
		c1.87,0.25,3.55-1.58,4.37-2.48c2.09-2.28,3.48-5.51,3.86-13.5c0.43-8.94-0.77-15.87,2.29-19.6c0.56-0.68,1.2-1.19,2-1.46
		c3.03-1.02,6.35,2.12,6.88,2.63c0.59-0.24,3.09-1.17,5.88-0.06c3.89,1.54,4.79,5.66,4.85,5.97c1.79-0.41,4.58-0.72,6.78,0.78
		c3.57,2.43,3.33,8.1,3.05,13.23c-0.16,2.87-0.68,12.21-5.39,20.16c-7.26,12.26-23.44,19.48-41.48,18.78
		c-1.93,1.21-4.53,3.29-4.96,6.26c-0.53,3.74,2.84,5.78,3.13,9.91c0.16,2.32-0.6,5.83-5.48,10.43c1.69,1.79,13.74,15.01,10.96,32.09
		c-2.83,17.36-19.82,31.6-41.19,32.27c-5.95,3.79-24.43,14.49-49.6,12.34c-20.09-1.71-34.14-10.73-40.13-15.11
		c-1.66-0.27-23-4.18-32.13-24.54c-8.26-18.42,0.22-35.25,1.3-37.3c0.41-0.41,5.25-5.4,3.91-12.52c-1.39-7.41-8.16-10.26-8.61-10.43
		c-4.96,0.53-12.9,0.49-20.35-3.91c-20.15-11.91-17.28-40.92-15.13-47.22c0.49-1.44,1.56-4.55,4.41-5.82c1.98-0.88,4-0.5,5.11-0.18
		c0.05-0.27,0.72-3.63,3.95-5.01C61.27,55.51,63.78,56.71,64.14,56.89z"/>
	<circle class="st1" cx="135.03" cy="183.54" r="11.15"/>
	<circle class="st2" cx="191.68" cy="184.02" r="10.67"/>
	<circle class="st3" cx="135.03" cy="184.02" r="4.99"/>
	<circle class="st3" cx="191.68" cy="184.02" r="4.99"/>
	<line class="st0" x1="130.04" y1="161.82" x2="140.02" y2="168.28"/>
	<line class="st0" x1="181.01" y1="170.04" x2="192.75" y2="163.98"/>
	<path class="st0" d="M146.18,199.98c1.8,3.38,5.37,4.83,8.02,3.82c2.32-0.89,3.18-3.37,3.33-3.82c0.18-0.74,0.34-1.63,0.39-2.64
		c0.09-1.7-0.13-3.15-0.39-4.21c0.65-0.19,1.79-0.64,2.84-1.66c1.73-1.69,2-3.77,2.05-4.4c-0.86-0.4-2.28-0.92-4.11-0.98
		c-2.73-0.08-4.76,0.93-5.65,1.44"/>
	<path class="st0" d="M172.4,199c-0.28,0.52-2.01,3.63-5.67,4.5c-3.34,0.79-6.95-0.59-9.2-3.52"/>
	<path class="st0" d="M152.64,187.06c0,0.57,0.09,2.12,1.17,3.62c1.33,1.84,3.22,2.33,3.72,2.45"/>
	<path class="st0" d="M153.14,204.06c-0.38,4.72,2.8,8.24,5.59,8.37c2.98,0.14,6.76-3.55,6.24-8.72"/>
	<path class="st0" d="M116.04,203.65c-1.42-4.85-2.75-10.62-3.6-17.17c-0.89-6.83-1.05-12.98-0.88-18.2
		c1.8-2.46,18.99-25.16,49.21-25.36c32.33-0.21,50.19,25.51,51.51,27.49c0.52,4.56,0.77,11.08-0.64,18.71
		c-1.37,7.41-3.82,13.28-5.87,17.3"/>
	<path class="st0" d="M82.8,176.4c12.16-31.57,42.03-52.87,75.51-53.91c32.17-1,62.28,16.88,77.09,45.78"/>
	<path class="st0" d="M85.2,141.8c3.56-4,34.98-38.13,83.48-34.17c39,3.18,62.41,28.82,67.3,34.43"/>
	<path class="st0" d="M141.88,76.52c0.13-1.04,0.78-5.16,4.4-8.22c2.49-2.1,5.14-2.66,6.36-2.84c1.71,0.67,3.93,1.73,6.26,3.42
		c2.38,1.73,4.1,3.55,5.28,4.99c1.37-1.89,4.31-5.38,9.29-7.53c2.42-1.04,4.64-1.48,6.36-1.66c1.12,0.35,3.61,1.3,5.77,3.72
		c2.39,2.68,2.97,5.6,3.13,6.75c-0.97,1.76-2.24,3.78-3.91,5.87c-2.03,2.54-4.09,4.5-5.87,5.97c1.04,1.11,2.14,2.38,3.23,3.82
		c1.38,1.82,2.51,3.58,3.42,5.18c-0.38,1.27-1.44,4.16-4.25,6.54c-1.86,1.58-3.76,2.31-4.95,2.65c-1.79-0.21-4.64-0.78-7.73-2.45
		c-2.73-1.47-4.6-3.25-5.75-4.52c-0.9,0.81-1.91,1.64-3.05,2.46c-2.37,1.71-4.66,2.93-6.65,3.82c-1-0.01-3.81-0.17-6.55-2.15
		c-2.5-1.81-3.54-4.13-3.91-5.09c1.01-2.21,2.47-4.81,4.6-7.43c0.85-1.05,1.71-1.98,2.54-2.8c-1.87-2.1-3.79-4.46-5.67-7.08
		C143.39,78.78,142.61,77.64,141.88,76.52z"/>
	<path class="st0" d="M54.55,61.71c-1.33,3.41-4.18,12.08-1.79,22.73c1.75,7.82,5.54,13.25,7.83,16.04"/>
	<path class="st0" d="M67.43,95.11c-1.81-2.07-8.01-9.68-8.12-21.03c-0.08-8.41,3.22-14.58,4.83-17.18"/>
	<path class="st0" d="M94.92,82.58c0.82-4.84,1.44-12.2-0.29-20.84c-1.12-5.6-2.92-10.2-4.6-13.66"/>
	<path class="st0" d="M107.38,55.71c0.77,7.63,1.02,20.61-4.24,35.28c-3.06,8.53-7.1,15.18-10.57,19.96
		c0.54,0.32,1.47,0.82,2.71,1.13c3.85,0.97,6.14-1.21,9.03-0.25c0.98,0.32,2.32,1.1,3.58,3.19c0.1,2.08-0.42,3.48-0.95,4.41
		c-2.73,4.69-11.32,6.12-21.26,3.1"/>
	<path class="st0" d="M232.6,81.28c-0.58-3.72-0.96-8.81-0.13-14.74c1.28-9.16,4.84-15.97,7.3-19.89"/>
	<path class="st0" d="M265.99,93.28c0.62-1.13,1.45-2.82,2.22-4.96c1.25-3.5,2.07-7.57,1.96-18.52c-0.04-3.47-0.17-7.96-0.56-13.22"
		/>
	<path class="st0" d="M269.71,100.87c2.26-2.9,4.74-6.7,6.78-11.45c4.76-11.11,4.46-21.32,3.85-26.92"/>
	<path class="st0" d="M235.99,126.02c-1.18,0.37-2.84,0.74-4.84,0.8c-2.03,0.06-3.73-0.24-4.94-0.54c-0.42-0.56-2.44-3.36-1.83-7.04
		c0.33-1.95,1.26-3.33,1.83-4.04c1.17-0.16,3.43-0.3,6,0.65c1.86,0.69,3.18,1.68,3.98,2.39c-0.41,0.5-0.96,1.32-1.24,2.43
		C234.27,123.35,235.69,125.58,235.99,126.02z"/>
	<path class="st0" d="M226.2,115.19c0.83-1.29,2.23-3.13,4.43-4.83c1.89-1.45,3.72-2.29,5.06-2.78c-2.37-3.21-4.73-6.99-6.81-11.38
		c-8.11-17.16-7.1-33.73-5.75-42.78"/>
	<path class="st4" d="M233.17,116.25"/>
	<path class="st0" d="M226.2,126.28c1.28,2.21,2.64,3.79,3.65,4.83c0.33,0.34,2.51,2.53,4.7,3c0.55,0.12,1.01,0.11,1.43,0
		c0,0,0.98-0.25,1.7-1.17c0.95-1.21,0.36-4.07-1.7-6.91"/>
	<path class="st0" d="M236.18,118.24c0.25-0.52,0.87-1.62,2.15-2.39c2.24-1.34,4.61-0.52,4.96-0.39"/>
	<path class="st0" d="M69.55,136.06c-4.49-0.33-16.11-1.78-26.09-10.7c-12.31-11-13.67-25.79-14.35-33.13
		c-0.51-5.57-2.93-31.91,14.87-44.35c7.09-4.95,14.78-5.88,19.39-6c3.68-2.61,14.24-9.37,28.88-8.87c8.64,0.3,15.34,3.01,19.25,4.98
		c9.94-4.89,28.43-12.38,52.75-13.07c23.6-0.67,42.01,5.35,52.17,9.52c3.73-1.69,9.39-3.66,16.43-3.91
		c15.06-0.55,25.9,7.09,29.45,9.83c6.74,0.3,15.98,1.8,25.34,7c4.2,2.33,9.48,5.27,13.7,11.35c5.37,7.75,5.72,15.9,5.87,20.74
		c0.14,4.53,0.55,20.66-11.35,35.22c-12.86,15.73-30.53,17.98-34.01,18.35c-1.05,3.19-2.11,6.38-3.16,9.56
		c2.06,4.86,4.64,12.54,5.16,22.22c0.21,3.92,0.59,17.66-5.51,30.07c-12.59,25.61-45.18,30.16-48.17,30.53
		c-8.38,4.25-25.63,11.57-48.52,11.35c-24.08-0.24-41.89-8.7-50.15-13.3c-3.49-0.55-28.13-4.82-41.81-27.78
		C58.95,177.66,58.97,154.87,69.55,136.06z"/>
</g>
</svg>
